PathFileType	4	(X/Y/Z)	Patient5_TMGait_0pt45_1_left_13.trc.trc
DataRate	CameraRate	NumFrames	NumMarkers	Units	OrigDataRate	OrigDataStartFrame	OrigNumFrames
57.142857142857	57.142857142857	5	32	mm	57.142857142857	53	       141
Frame#	Time	R.ASIS			L.ASIS			Chest			R.Shoulder			Neck			L.Shoulder			L.Elbow			L.Wrist			R.Elbow			R.Wrist			L.Thigh.Superior			L.Thigh.Lateral			L.Thigh.Inferior			L.Patella			L.Shank.Superior			L.Shank.Lateral			L.Shank.Inferior			L.Heel			L.Midfoot.Lateral			L.Midfoot.Superior			L.Toe			R.Thigh.Superior			R.Thigh.Lateral			R.Thigh.Inferior			R.Patella			R.Shank.Superior			R.Shank.Lateral			R.Shank.Inferior			R.Heel			R.Midfoot.Lateral			R.Midfoot.Superior			R.Toe			
		X1	Y1	Z1	X2	Y2	Z2	X3	Y3	Z3	X4	Y4	Z4	X5	Y5	Z5	X6	Y6	Z6	X7	Y7	Z7	X8	Y8	Z8	X9	Y9	Z9	X10	Y10	Z10	X11	Y11	Z11	X12	Y12	Z12	X13	Y13	Z13	X14	Y14	Z14	X15	Y15	Z15	X16	Y16	Z16	X17	Y17	Z17	X18	Y18	Z18	X19	Y19	Z19	X20	Y20	Z20	X21	Y21	Z21	X22	Y22	Z22	X23	Y23	Z23	X24	Y24	Z24	X25	Y25	Z25	X26	Y26	Z26	X27	Y27	Z27	X28	Y28	Z28	X29	Y29	Z29	X30	Y30	Z30	X31	Y31	Z31	X32	Y32	Z32	

53	21.090000000000	1026.872454583832	1009.039102682011	504.661711120570	1051.548593345974	962.868653682508	271.886883777517	1114.707123906923	1450.823389375988	375.324517943786	987.692498724547	1523.487936163140	517.256208587522	1000.296303314277	1574.636955062520	329.851502870423	1097.462262875895	1509.842905262094	170.573506860170	1110.970915287324	1180.285842008102	52.429643465326	1269.402013921511	947.613056215163	122.386599658208	868.701006127544	1214.571709176711	656.340419018086	1081.542914994403	1018.798584276822	623.923831033924	1073.902540470015	750.298165249501	270.964369209731	1003.023527105696	675.910937151867	235.005243592942	1079.253788957995	624.360420951344	299.602630057794	1084.135091110559	507.478576412043	311.074083451721	1037.714988515970	402.023569702538	334.862951266358	971.475939018294	331.143099848994	262.247141955956	1007.133336629581	280.496741674887	350.800531671906	877.439226743401	50.631667671074	363.190883757952	966.505403842620	25.044988610776	304.390589588428	1062.466578094210	89.669373774671	349.853450150701	1169.492821031390	48.252402435896	358.109299458788	1052.138906365984	791.873600645219	566.553605472406	965.480164974301	718.755974332140	623.223976894382	1056.012908871620	659.379428922262	571.320128441643	1056.035525666062	562.772996654988	620.285889948930	1007.532047495995	458.910421000997	588.553386360898	911.905093097113	409.471483065665	658.128951049418	972.678875046340	323.453217824195	598.942340099620	834.976352138417	111.264710885417	562.154337997481	887.969105696975	76.092249363978	653.864651568079	1002.625684520595	127.240605422407	661.400725213542	1095.694821958228	73.750088234282	689.542145506484	
54	21.107500000000	1025.683854202912	1008.906316546409	503.572866724030	1049.193177936049	962.899838345345	270.672902148892	1112.083519285262	1450.894117492553	373.254991621236	985.584162137281	1523.781826883592	515.434250327633	997.459880829581	1574.669892288902	327.943980048248	1094.114953621610	1509.455127774263	168.467410666444	1109.060070139767	1179.375182213834	51.841041116500	1269.749543839141	948.583009545715	122.776497384053	867.673958712107	1215.056459795552	655.680974088892	1079.816879659873	1018.913049052408	620.863638217324	1070.897644785118	749.882994735640	270.215382892259	999.388668030501	675.795218950165	234.676613368380	1075.475241991070	623.840979250984	298.750955759234	1079.600392911561	506.707777663017	310.307994799384	1032.474801655941	401.575907229428	334.508407011722	965.647573218973	331.104539811155	262.028919663222	1001.055886235682	280.367888849311	350.784194015579	869.550095797162	50.641256367547	363.355799865027	958.607478778096	25.199956235099	304.467285399491	1054.703685030087	89.586496311288	349.901060068037	1161.709149956531	47.813005591904	358.146635021986	1051.265323594309	792.270590978242	563.821676731015	966.142690935282	718.991964759705	622.084886655161	1056.403185946996	660.327699281020	568.681710139852	1058.715361088005	564.684027044731	617.984427541219	1014.339361790484	460.653991845793	587.625831359135	921.538680510846	407.863551651653	658.512915164326	985.646882662689	323.999629040079	599.739919563970	857.056666748844	105.191432621124	566.304725806676	912.671028922393	73.032173568051	657.472843256186	1024.929334886555	129.498603629620	663.414941260052	1120.711486084532	80.603615995338	690.835132746925	
55	21.125000000000	1024.370993962818	1008.794563560448	502.701335540566	1046.730535322789	962.932529324603	269.683451981817	1109.286785496335	1450.868709700140	371.478210977439	983.194218560584	1524.034570832603	513.799187823425	994.484086315348	1574.653989186266	326.242940290170	1090.795488779715	1508.944644222152	166.644793248755	1106.797343813449	1178.381806784525	51.402767739185	1269.282292531173	949.122863988739	123.147171971631	866.726121849584	1215.300616581661	655.045875935645	1078.603806480026	1019.257800364183	618.052836520775	1067.875952000282	749.486405370383	269.651435675734	995.825283929040	675.656506594304	234.440555255448	1071.732471425016	623.269587904991	298.047594400422	1075.103175184333	505.949570379996	309.704694151734	1027.285253511696	401.157326101018	334.308158255687	959.934948877584	331.070643599243	261.850397681079	995.046918483969	280.264322618169	350.887209863747	861.661763564433	50.640125065852	363.548991874365	950.718124709531	25.367420483145	304.559174330744	1046.964637570610	89.513259604621	349.958223322125	1153.942741736272	47.347296200124	358.189850655257	1050.933390124028	792.990452890859	561.610616147334	967.657817735109	719.276882720002	621.236060672129	1057.971396231373	661.619028110190	566.498536150725	1062.653192532828	566.820768944408	616.036497691518	1022.018023871175	462.661195058850	586.812142562002	931.914839219609	406.895945971913	658.890267480000	998.828973105444	325.161270797240	600.244105724812	878.510245342395	100.968190413263	569.729559264299	936.546839096097	71.377867991451	660.138062247206	1046.427579593033	132.483655356063	664.523070313738	1144.524929510580	87.765121640021	690.915268257292	
56	21.142500000000	1022.945286196544	1008.741199039236	502.040079575270	1044.161354010759	963.015996477146	268.907051158731	1106.307870187465	1450.774320841553	369.987655374659	980.510100960271	1524.251399439890	512.372404645448	991.358074884692	1574.611929155513	324.773801540538	1087.488396109957	1508.357383165273	165.114692696373	1104.230234078677	1177.355574087128	51.103893356977	1267.988663137457	949.224416155200	123.497996977251	865.758299893213	1215.311040730348	654.376809645587	1077.844431018526	1019.853622894166	615.559924422367	1064.810391993705	749.106022607879	269.272989631060	992.294750179499	675.526818052474	234.282952363908	1067.968679127726	622.666589606046	297.505815495725	1070.573748179975	505.210695974905	309.261197476237	1022.108713455447	400.792297805998	334.276177969893	954.278320504084	331.048384424929	261.713538045908	989.062611241672	280.177027999654	351.092831817146	853.776270068125	50.629248975524	363.771259654868	942.836980587575	25.542159261668	304.669529761850	1039.247855740620	89.444042460910	350.030460044817	1146.191657446936	46.873419687802	358.231153522446	1051.228177618786	794.097427992986	559.967221699765	970.041638832682	719.677987756982	620.659691564543	1060.735264588639	663.311178480693	564.802599802515	1067.817441386858	569.231470570727	614.494246362548	1030.469461334030	464.904347169618	586.140144822661	942.838459279505	406.555552114946	659.231922249463	1012.029608528643	326.833127837682	600.473867627978	898.953423896795	98.415364269289	572.344140031973	959.162119436782	70.940981616189	661.887064266156	1066.787868760477	135.988176619642	664.856369938993	1166.810297670459	94.929847132343	690.049975307307	
57	21.160000000000	1021.412860810426	1008.782296353926	501.559689212399	1041.484037450244	963.194974470647	268.311073852442	1103.143856553029	1450.643930527788	368.770543328128	977.537491150605	1524.438086542118	511.179193217645	988.072765675230	1574.566443148289	323.560666719317	1084.156619231004	1507.746153784420	163.878441689776	1101.406189235332	1176.357025657414	50.929151270259	1265.866015201701	948.907195189885	123.842206065966	864.671472884754	1215.107644102580	653.636242975464	1077.456731527059	1020.717358324237	613.440731960912	1061.677895918845	748.747317210123	269.066029873033	988.752179404265	675.432744084040	234.204106853358	1064.131697313050	622.060855815368	297.119380865466	1065.946806287641	504.498663721583	308.954052944642	1016.906325093318	400.502677360991	334.404222599359	948.608028214076	331.049017543640	261.615535418191	983.052879519556	280.099177170748	351.367452253307	845.896308044406	50.613669711886	364.017425812555	934.963120487938	25.717972136766	304.800048545529	1031.547575243122	89.370367103225	350.121686291892	1138.451343556758	46.412087632135	358.262914479485	1052.162372874583	795.616929913969	558.859915301386	973.240902660548	720.252025488611	620.323746786190	1064.596491466165	665.429870642996	563.564291587429	1074.078679348809	571.942786007623	613.348184866601	1039.532156907982	467.360301788253	585.611009998807	954.092759427976	406.801329724799	659.520965826169	1025.052745568437	328.909669605369	600.454029498167	918.094837339560	97.285200759446	574.131286707679	980.186420476189	71.504929282094	662.807270431386	1085.768596241105	139.816145544937	664.567656763916	1187.347185994686	101.845313824370	688.524863916796	
